<svg xmlns="http://www.w3.org/2000/svg" width="32" height="32" viewBox="0 0 32 32">
  <!-- pointer tip -->
  <circle cx="4" cy="4" r="2" fill="#f5c842"/>
  <!-- e -->
  <path d="M10,20 C10,17 12,15 14.5,15 C17,15 18.5,17 18.5,19 L11,19 C11,21 12.5,22.5 14.5,22.5 C16,22.5 17,21.5 17.5,20.5" fill="none" stroke="#f5c842" stroke-width="2" stroke-linecap="round"/>
  <!-- superscript j -->
  <path d="M21,8 L21,14 C21,15.5 20,16.5 19,16.5" fill="none" stroke="#f5c842" stroke-width="1.5" stroke-linecap="round"/>
  <circle cx="21" cy="6" r="1" fill="#f5c842"/>
  <!-- superscript omega -->
  <path d="M24,14 C24,11 25.5,9 27,9 C28.5,9 30,11 30,14" fill="none" stroke="#f5c842" stroke-width="1.5" stroke-linecap="round"/>
  <line x1="24" y1="14" x2="23" y2="16" stroke="#f5c842" stroke-width="1.5" stroke-linecap="round"/>
  <line x1="30" y1="14" x2="31" y2="16" stroke="#f5c842" stroke-width="1.5" stroke-linecap="round"/>
</svg>
