<svg xmlns="http://www.w3.org/2000/svg" width="28" height="20" viewBox="0 0 28 20">
  <!-- e as path -->
  <path d="M3,13 C3,10 5,8 8,8 C11,8 12.5,10 12.5,12.5 L4,12.5 C4,14.5 5.5,16 8,16 C10,16 11,15 11.5,14" fill="none" stroke="#f5c842" stroke-width="1.5" stroke-linecap="round"/>
  <!-- j as path -->
  <path d="M16,4 L16,3.5 M16,6 L16,11 C16,13 15,14 14,14" fill="none" stroke="#f5c842" stroke-width="1.2" stroke-linecap="round"/>
  <!-- omega as path -->
  <path d="M19,11 C19,8 20.5,6 22,6 C23.5,6 25,8 25,11 M19,11 L18,13 M25,11 L26,13" fill="none" stroke="#f5c842" stroke-width="1.2" stroke-linecap="round" stroke-linejoin="round"/>
</svg>
